<svg width="20" height="18" viewBox="0 0 20 18" fill="none" xmlns="http://www.w3.org/2000/svg">
<path d="M11.1543 5.6611C11.1717 5.50875 11.1578 5.35445 11.1135 5.20768C11.0692 5.06091 10.9954 4.92479 10.8966 4.8077C10.7978 4.69062 10.6762 4.59505 10.5392 4.52688C10.4021 4.45871 10.2526 4.41938 10.0999 4.41133C9.94714 4.40327 9.79435 4.42665 9.65095 4.48003C9.50755 4.53341 9.37657 4.61565 9.26608 4.7217C9.15559 4.82775 9.06793 4.95535 9.0085 5.09665C8.94907 5.23794 8.91912 5.38994 8.92051 5.54328H8.91717L9.17026 10.8954V10.9041C9.16753 11.0215 9.18843 11.1383 9.23172 11.2474C9.27501 11.3565 9.3398 11.4558 9.42222 11.5392C9.50463 11.6227 9.60299 11.6886 9.7114 11.7331C9.81981 11.7775 9.93606 11.7997 10.0532 11.7981C10.1703 11.7965 10.2859 11.7713 10.3931 11.7239C10.5003 11.6765 10.5968 11.608 10.677 11.5223C10.7572 11.4367 10.8193 11.3357 10.8596 11.2255C10.9 11.1153 10.9177 10.998 10.9119 10.8807L11.1549 5.6611H11.1543ZM7.30111 1.91091C8.79096 -0.639647 11.2104 -0.634292 12.6969 1.91091L19.3561 13.3074C20.8453 15.858 19.6646 17.9245 16.7103 17.9245H3.28769C0.336722 17.9245 -0.8446 15.8519 0.64257 13.3074L7.30111 1.91091ZM10.0411 15.3961C10.1905 15.3997 10.3391 15.3734 10.4782 15.3186C10.6173 15.2638 10.7441 15.1817 10.851 15.077C10.958 14.9724 11.043 14.8473 11.101 14.7093C11.1591 14.5712 11.189 14.4229 11.189 14.2731C11.189 14.1233 11.1591 13.9749 11.101 13.8369C11.043 13.6988 10.958 13.5738 10.851 13.4691C10.7441 13.3645 10.6173 13.2824 10.4782 13.2276C10.3391 13.1728 10.1905 13.1464 10.0411 13.1501C9.7487 13.1573 9.47071 13.2787 9.26645 13.4885C9.06219 13.6983 8.94786 13.9799 8.94786 14.2731C8.94786 14.5663 9.06219 14.8478 9.26645 15.0576C9.47071 15.2675 9.7487 15.3889 10.0411 15.3961Z" fill="#E5DD58"/>
</svg>
