<svg width="14" height="20" viewBox="0 0 14 20" fill="none" xmlns="http://www.w3.org/2000/svg">
<path d="M4.51158 20C4.43381 20 4.35502 19.9845 4.27979 19.952C4.01647 19.8384 3.87405 19.551 3.94319 19.2727L5.92458 11.297H0.585934C0.392693 11.297 0.211873 11.2018 0.102616 11.0423C-0.00664143 10.8829 -0.030235 10.6799 0.0394523 10.4997L3.95592 0.374569C4.04322 0.148828 4.26033 0 4.5024 0H9.89152C10.0895 0 10.2741 0.0999996 10.3823 0.265858C10.4905 0.431717 10.5076 0.640974 10.4277 0.822184L8.10864 6.08623H12.6953C12.9096 6.08623 13.1068 6.20322 13.2095 6.39126C13.3123 6.57931 13.3041 6.80845 13.1883 6.98876L5.00486 19.7306C4.8942 19.903 4.70604 20 4.51158 20Z" fill="#E5DD58"/>
</svg>
