<svg width="23" height="20" viewBox="0 0 23 20" fill="none" xmlns="http://www.w3.org/2000/svg">
<path d="M5.35933 9.2814H0.718594C0.321723 9.2814 0 9.60317 0 10V19.2814C0 19.6783 0.321723 20 0.718594 20H5.35933C5.75616 20 6.07792 19.6783 6.07792 19.2814V10C6.07788 9.60317 5.75616 9.2814 5.35933 9.2814Z" fill="#E5DD58"/>
<path d="M13.3385 0H8.69778C8.30095 0 7.97919 0.321723 7.97919 0.718594V19.2814C7.97919 19.6782 8.30091 20 8.69778 20H13.3385C13.7353 20 14.0571 19.6783 14.0571 19.2815V0.718551C14.0571 0.321723 13.7353 0 13.3385 0Z" fill="#E5DD58"/>
<path d="M21.3179 4.64062H16.6772C16.2804 4.64062 15.9586 4.96235 15.9586 5.35922V19.2813C15.9586 19.6782 16.2803 19.9999 16.6772 19.9999H21.3179C21.7148 19.9999 22.0365 19.6782 22.0365 19.2813V5.35922C22.0365 4.96239 21.7148 4.64062 21.3179 4.64062Z" fill="#E5DD58"/>
</svg>
