<svg width="20" height="20" viewBox="0 0 20 20" fill="none" xmlns="http://www.w3.org/2000/svg">
<g clip-path="url(#clip0_170_4151)">
<path d="M10 6.97674C10.8991 6.97674 11.6279 6.24791 11.6279 5.34884C11.6279 4.44977 10.8991 3.72093 10 3.72093C9.10094 3.72093 8.3721 4.44977 8.3721 5.34884C8.3721 6.24791 9.10094 6.97674 10 6.97674Z" fill="#E5DD58"/>
<path d="M16.5116 0H3.48838C2.07597 0.00102185 0.931259 1.14574 0.930237 2.55814V17.4419C0.931259 18.8543 2.07597 19.999 3.48838 20H16.5116C17.924 19.999 19.0688 18.8543 19.0698 17.4419V2.55814C19.0688 1.14574 17.924 0.00102185 16.5116 0ZM6.97675 5.34884C6.96709 3.67918 8.31276 2.31779 9.98246 2.3081C11.6521 2.29845 13.0135 3.64412 13.0232 5.31381C13.0283 6.19218 12.6511 7.02932 11.9898 7.60743C12.9272 8.25705 13.487 9.32459 13.4884 10.4651C13.4884 10.8504 13.176 11.1628 12.7907 11.1628C12.4054 11.1628 12.093 10.8504 12.093 10.4651C12.093 9.30916 11.156 8.37209 10 8.37209C8.84405 8.37209 7.90698 9.30916 7.90698 10.4651C7.90698 10.8504 7.59461 11.1628 7.20931 11.1628C6.824 11.1628 6.51163 10.8504 6.51163 10.4651C6.51301 9.32459 7.07284 8.25708 8.01022 7.60743C7.35631 7.03872 6.9796 6.21547 6.97675 5.34884ZM14.1861 16.7442H5.81396C5.42865 16.7442 5.11628 16.4318 5.11628 16.0465C5.11628 15.6612 5.42865 15.3488 5.81396 15.3488H14.1861C14.5714 15.3488 14.8837 15.6612 14.8837 16.0465C14.8837 16.4318 14.5714 16.7442 14.1861 16.7442ZM14.1861 13.9535H5.81396C5.42865 13.9535 5.11628 13.6411 5.11628 13.2558C5.11628 12.8705 5.42865 12.5581 5.81396 12.5581H14.1861C14.5714 12.5581 14.8837 12.8705 14.8837 13.2558C14.8837 13.6411 14.5714 13.9535 14.1861 13.9535Z" fill="#E5DD58"/>
</g>
<defs>
<clipPath id="clip0_170_4151">
<rect width="20" height="20" fill="white"/>
</clipPath>
</defs>
</svg>
