<svg width="20" height="20" viewBox="0 0 20 20" fill="none" xmlns="http://www.w3.org/2000/svg">
<path d="M11.8881 6.76025C12.4178 6.54551 12.9256 6.35674 13.3888 6.21499C13.8901 6.53247 14.3833 6.8585 14.8543 7.202C15.2263 7.473 15.5828 7.75127 15.9295 8.03452C16.3593 8.38603 16.7653 8.74429 17.146 9.10703C18.5873 7.48301 19.2181 5.96504 18.6605 5.00005C17.6263 3.20806 12.9183 3.99004 8.1398 6.74331C8.21807 6.1793 8.30904 5.64458 8.41729 5.17358C8.94302 4.89761 9.47202 4.63408 10.005 4.39731C10.4258 4.21108 10.8448 4.04155 11.263 3.88281C11.7823 3.68682 12.2958 3.51333 12.8003 3.36533C12.1144 1.30449 11.1151 0 10.0008 0C7.93159 0 6.25435 4.46851 6.2501 9.98452C5.8001 9.63379 5.38262 9.28779 5.02862 8.95825C5.0521 8.36499 5.08863 7.77524 5.14961 7.19473C5.19834 6.7375 5.26187 6.28975 5.3336 5.8477C5.42285 5.30019 5.52959 4.7687 5.6541 4.25771C3.52613 3.82148 1.89712 4.03496 1.3396 4.99995C0.305081 6.79199 3.3356 10.4785 8.11211 13.2397C7.58311 13.4545 7.07461 13.6433 6.61138 13.785C6.11011 13.4675 5.6169 13.1415 5.1459 12.798C4.77388 12.527 4.41739 12.2487 4.07066 11.9655C3.64092 11.614 3.23491 11.2557 2.85415 10.893C1.41289 12.517 0.782131 14.035 1.33965 15C2.37388 16.7919 7.08189 16.01 11.8604 13.2567C11.7821 13.8207 11.6912 14.3554 11.5829 14.8264C11.0572 15.1024 10.5282 15.3659 9.99517 15.6027C9.57442 15.7889 9.15542 15.9584 8.73716 16.1172C8.21792 16.3132 7.7044 16.4867 7.1999 16.6347C7.88589 18.6954 8.88516 19.9999 9.99942 19.9999C12.0687 19.9999 13.7459 15.5314 13.7501 10.0154C14.2001 10.3661 14.6176 10.7121 14.9716 11.0416C14.9481 11.6349 14.9116 12.2247 14.8506 12.8052C14.8019 13.2624 14.7384 13.7102 14.6667 14.1522C14.5774 14.6997 14.4707 15.2312 14.3461 15.7422C16.4741 16.1784 18.1031 15.9649 18.6606 15C19.6948 13.208 16.6644 9.52148 11.8881 6.76025ZM10.0001 11.25C9.30908 11.25 8.7501 10.6893 8.7501 10C8.7501 9.31074 9.30908 8.75 10.0001 8.75C10.6911 8.75 11.2501 9.31074 11.2501 10C11.2501 10.6893 10.6911 11.25 10.0001 11.25Z" fill="#E5DD58"/>
</svg>
