<svg width="20" height="20" viewBox="0 0 20 20" fill="none" xmlns="http://www.w3.org/2000/svg">
<path d="M19.7382 12.6759L19.1499 12.2853L10.9723 17.7144C10.6831 17.9064 10.347 18.0078 10 18.0078C9.65307 18.0078 9.31693 17.9064 9.02787 17.7145L0.850176 12.2853L0.261855 12.6759C-0.0872852 12.9077 -0.0872852 13.4205 0.261855 13.6522L9.67592 19.9022C9.87232 20.0326 10.1277 20.0326 10.3241 19.9022L19.7381 13.6522C20.0873 13.4204 20.0873 12.9077 19.7382 12.6759Z" fill="#E5DD58"/>
<path d="M19.7381 9.51183L19.1499 9.12125L10.9722 14.5504C10.6832 14.7423 10.347 14.8438 9.99998 14.8438C9.65299 14.8438 9.31678 14.7423 9.02771 14.5504L0.850137 9.12129L0.261855 9.51183C-0.0872852 9.74363 -0.0872852 10.2564 0.261855 10.4881L9.67592 16.7381C9.87232 16.8685 10.1277 16.8685 10.3241 16.7381L19.7381 10.4881C20.0872 10.2564 20.0872 9.74363 19.7381 9.51183Z" fill="#E5DD58"/>
<path d="M0.261855 7.32408L9.67592 13.5741C9.87232 13.7045 10.1277 13.7045 10.3241 13.5741L19.7381 7.32408C20.0873 7.09228 20.0873 6.57959 19.7381 6.34779L10.3241 0.097793C10.1277 -0.0325977 9.87228 -0.0325977 9.67592 0.097793L0.261855 6.34779C-0.0872852 6.57955 -0.0872852 7.09228 0.261855 7.32408ZM13.0176 8.91748C12.8387 9.18709 12.475 9.26053 12.2054 9.08154L9.99998 7.61736L7.79455 9.08154C7.52494 9.26053 7.16131 9.18709 6.98232 8.91748C6.80334 8.64787 6.87678 8.28424 7.14639 8.10525L9.67592 6.42592C9.87228 6.29553 10.1277 6.29553 10.3241 6.42592L12.8536 8.10525C13.1232 8.28424 13.1966 8.64787 13.0176 8.91748ZM4.7635 6.52318L9.67588 3.26186C9.87225 3.13146 10.1277 3.13146 10.324 3.26186L15.2364 6.52318C15.506 6.70217 15.5795 7.0658 15.4005 7.33541C15.2215 7.60502 14.8579 7.67846 14.5883 7.49947L9.99998 4.4533L5.41166 7.49947C5.14205 7.67846 4.77842 7.60498 4.59943 7.33541C4.42045 7.06584 4.49393 6.70217 4.7635 6.52318Z" fill="#E5DD58"/>
</svg>
