<svg width="20" height="20" viewBox="0 0 20 20" fill="none" xmlns="http://www.w3.org/2000/svg">
<path d="M18.81 10C19.5279 9.46555 20 8.61797 20 7.65625C20 6.47695 19.2825 5.42352 18.2302 4.96746C18.4 3.24418 16.8916 1.58473 15.0325 1.76984C14.5765 0.717539 13.523 0 12.3438 0C11.6811 0 11.0773 0.232109 10.5859 0.604375V7.07031H11.7578V5.3125C11.7578 4.98863 12.0199 4.72656 12.3438 4.72656C12.6676 4.72656 12.9297 4.98863 12.9297 5.3125V7.07031H14.6875C15.0114 7.07031 15.2734 7.33238 15.2734 7.65625C15.2734 7.98012 15.0114 8.24219 14.6875 8.24219H12.9297V9.41406H14.6875C15.0114 9.41406 15.2734 9.67613 15.2734 10C15.2734 10.3239 15.0114 10.5859 14.6875 10.5859H12.9297V11.7578H14.6875C15.0114 11.7578 15.2734 12.0199 15.2734 12.3438C15.2734 12.6676 15.0114 12.9297 14.6875 12.9297H12.9297V14.6875C12.9297 15.0114 12.6676 15.2734 12.3438 15.2734C12.0199 15.2734 11.7578 15.0114 11.7578 14.6875V12.9297H10.5859V19.3956C11.0773 19.7679 11.6811 20 12.3438 20C13.523 20 14.5765 19.2825 15.0325 18.2302C16.886 18.4177 18.4007 16.7616 18.2302 15.0325C19.2825 14.5765 20 13.523 20 12.3438C20 11.382 19.5279 10.5345 18.81 10Z" fill="#E5DD58"/>
<path d="M8.24219 8.24219V11.7578H11.7578V8.24219H8.24219ZM10 10.5859C9.67641 10.5859 9.41406 10.3236 9.41406 10C9.41406 9.67633 9.67641 9.41406 10 9.41406C10.3236 9.41406 10.5859 9.67633 10.5859 10C10.5859 10.3236 10.3236 10.5859 10 10.5859Z" fill="#E5DD58"/>
<path d="M9.41406 7.07031V0.604336C8.92273 0.232109 8.31887 0 7.65625 0C6.47695 0 5.42352 0.717539 4.96746 1.76984C3.13219 1.58738 1.59766 3.22129 1.76984 4.96746C0.717539 5.42352 0 6.47695 0 7.65625C0 8.61797 0.47207 9.46555 1.18996 10C0.47207 10.5345 0 11.382 0 12.3438C0 13.523 0.717539 14.5765 1.76984 15.0325C1.60004 16.7545 3.10996 18.4178 4.96746 18.2302C5.42352 19.2825 6.47695 20 7.65625 20C8.31887 20 8.92273 19.7679 9.41406 19.3957V12.9297H8.24219V14.6875C8.24219 15.0114 7.98012 15.2734 7.65625 15.2734C7.33238 15.2734 7.07031 15.0114 7.07031 14.6875V12.9297H5.3125C4.98863 12.9297 4.72656 12.6676 4.72656 12.3438C4.72656 12.0199 4.98863 11.7578 5.3125 11.7578H7.07031V10.5859H5.3125C4.98863 10.5859 4.72656 10.3239 4.72656 10C4.72656 9.67613 4.98863 9.41406 5.3125 9.41406H7.07031V8.24219H5.3125C4.98863 8.24219 4.72656 7.98012 4.72656 7.65625C4.72656 7.33238 4.98863 7.07031 5.3125 7.07031H7.07031V5.3125C7.07031 4.98863 7.33238 4.72656 7.65625 4.72656C7.98012 4.72656 8.24219 4.98863 8.24219 5.3125V7.07031H9.41406Z" fill="#E5DD58"/>
</svg>
