<svg width="32" height="32" viewBox="0 0 32 32" fill="none" xmlns="http://www.w3.org/2000/svg">
<path d="M16 0C15.2002 0 14.4004 0.303924 13.7446 0.943764L0.947763 13.7406C-0.315921 14.9883 -0.315921 17.0037 0.947763 18.2514L13.7446 31.0482C14.9923 32.3119 17.0077 32.3119 18.2554 31.0482L31.0522 18.2514C32.3159 17.0037 32.3159 14.9883 31.0522 13.7406L18.2554 0.943764C17.5996 0.303924 16.7998 0 16 0ZM19.3112 9.93352C21.5986 9.93352 23.4221 11.7731 23.4221 14.0445V18.2674C23.4221 20.5389 21.5986 22.3944 19.3112 22.3944C17.0237 22.3944 15.2002 20.5389 15.2002 18.2674V14.0445C15.2002 11.7731 17.0397 9.93352 19.3112 9.93352ZM13.3767 10.2534H13.6006V22.3944H11.2012V13.1327L8.35391 14.0125V12.045L13.3767 10.2534ZM19.2952 12.2369C18.3514 12.2369 17.5996 13.0047 17.5996 13.9325V18.3954C17.5996 19.3072 18.3514 20.059 19.2952 20.059C20.2229 20.059 21.0227 19.2912 21.0227 18.3954V13.9325C21.0227 12.9888 20.2229 12.2369 19.2952 12.2369Z" fill="#EEE8DF"/>
</svg>
