<svg width="32" height="33" viewBox="0 0 32 33" fill="none" xmlns="http://www.w3.org/2000/svg">
<path fill-rule="evenodd" clip-rule="evenodd" d="M15.4051 0.940316C15.7585 0.678708 16.2414 0.678708 16.5949 0.940316L30.9251 11.5465C31.2689 11.8009 31.4128 12.2459 31.2832 12.6535L25.8169 29.8344C25.6849 30.2494 25.2995 30.5313 24.864 30.5313H7.13598C6.70049 30.5313 6.31508 30.2494 6.18305 29.8344L0.716809 12.6535C0.587132 12.2459 0.731035 11.8009 1.07483 11.5465L15.4051 0.940316ZM23.2381 23.4035H15.101V21.714C15.101 21.714 20.541 16.351 20.541 14.7235C20.541 12.7395 18.941 12.941 18.941 12.941C17.9048 13.0185 17.1429 13.902 17.1429 14.956H14.7657C14.8571 12.693 16.7162 10.9105 19.0781 11.0035C22.8419 11.0035 22.8876 13.871 22.8876 14.5685C22.8876 17.312 18.0267 21.497 18.0267 21.497L23.2381 21.466V23.4035ZM10.88 23.4035H13.3333V11.0035H13.0438L8 12.848V14.832L10.88 13.933V23.4035Z" fill="#EEE8DF"/>
</svg>
