<svg width="32" height="32" viewBox="0 0 32 32" fill="none" xmlns="http://www.w3.org/2000/svg">
<path d="M29.452 7.392L16.812 0.288C16.556 0.0960001 16.236 0 15.9 0C15.564 0 15.244 0.0960001 14.988 0.288L2.348 7.392C1.836 7.664 1.5 8.192 1.5 8.8V23.2C1.5 23.808 1.836 24.336 2.348 24.608L14.988 31.712C15.244 31.904 15.564 32 15.9 32C16.236 32 16.556 31.904 16.812 31.712L29.452 24.608C29.964 24.336 30.3 23.808 30.3 23.2V8.8C30.3 8.192 29.964 7.664 29.452 7.392ZM15.02 22.336L6.796 22.288V20.656C6.796 20.656 12.284 15.328 12.3 13.712C12.3 11.728 10.668 11.936 10.668 11.936C10.668 11.936 9.1 12 8.924 13.936L6.524 14.016C6.524 14.016 6.588 10.016 10.828 10.016C14.62 10.016 14.668 12.864 14.668 13.6C14.668 16.288 9.74 20.432 9.74 20.432L15.02 20.416V22.336ZM24.7 18.4C24.7 20.64 22.86 22.48 20.588 22.48C18.3 22.48 16.476 20.64 16.476 18.4V14.144C16.476 11.872 18.3 10.032 20.588 10.032C22.876 10.032 24.7 11.872 24.7 14.144V18.4ZM22.3 14.032V18.448C22.3 19.392 21.5 20.16 20.572 20.16C19.644 20.16 18.876 19.392 18.876 18.448V14.032C18.876 13.088 19.644 12.336 20.572 12.336C21.5 12.336 22.3 13.088 22.3 14.032Z" fill="#EEE8DF"/>
</svg>
