<svg width="32" height="32" viewBox="0 0 32 32" fill="none" xmlns="http://www.w3.org/2000/svg">
<path fill-rule="evenodd" clip-rule="evenodd" d="M28.5 6.27778V25.7222C28.5 27.2639 27.2639 28.5 25.7222 28.5H6.27778C4.75 28.5 3.5 27.2639 3.5 25.7222V6.27778C3.5 4.75 4.75 3.5 6.27778 3.5H25.7222C27.2639 3.5 28.5 4.75 28.5 6.27778ZM17.0409 13.7139C18.1776 13.7139 20.4337 14.7128 20.5198 18.0884C20.6231 21.6362 17.4542 22.5489 17.4542 22.5489C17.4542 22.5489 11.4264 24.0301 11.4781 16.7967C11.5298 8.66783 18.522 9.3395 18.522 9.3395V11.4062C14.2164 11.3545 14.1648 14.8506 14.1648 14.8506C14.1648 14.8506 15.112 13.7139 17.0409 13.7139ZM17.9364 18.2434C17.9364 19.5695 17.1787 20.5339 16.1281 20.5339C15.0776 20.5339 14.1476 19.5695 14.1476 18.2434L14.1131 17.0034C14.1131 17.0034 14.7676 15.6601 16.042 15.8323C17.0926 15.8323 17.9364 16.9173 17.9364 18.2434Z" fill="#EEE8DF"/>
</svg>
