<svg width="32" height="32" viewBox="0 0 32 32" fill="none" xmlns="http://www.w3.org/2000/svg">
<path d="M16 0C15.2002 0 14.4004 0.303924 13.7446 0.943764L0.947763 13.7406C-0.315921 14.9883 -0.315921 17.0037 0.947763 18.2514L13.7446 31.0482C14.9923 32.3119 17.0077 32.3119 18.2554 31.0482L31.0522 18.2514C32.3159 17.0037 32.3159 14.9883 31.0522 13.7406L18.2554 0.943764C17.5996 0.303924 16.7998 0 16 0ZM16 9.9975C18.0955 9.9975 19.8071 11.5171 19.8071 13.4046C19.8071 14.5084 19.1992 15.4841 18.3034 16.108C19.4231 16.7318 20.159 17.8035 20.159 19.0352C20.159 20.9868 18.3034 22.5544 16 22.5544C13.6966 22.5544 11.841 20.9868 11.841 19.0352C11.841 17.8035 12.5769 16.7318 13.6966 16.108C12.8008 15.4841 12.2089 14.5084 12.2089 13.4046C12.2089 11.5171 13.9045 9.9975 16 9.9975ZM16 11.997C15.2002 11.997 14.5604 12.7168 14.5604 13.5966C14.5604 14.4764 15.2002 15.1962 16 15.1962C16.7998 15.1962 17.4396 14.4764 17.4396 13.5966C17.4396 12.7168 16.7998 11.997 16 11.997ZM16 17.0357C15.0242 17.0357 14.2404 17.8195 14.2404 18.7953C14.2404 19.7711 15.0242 20.5549 16 20.5549C16.9758 20.5549 17.7596 19.7711 17.7596 18.7953C17.7596 17.8195 16.9758 17.0357 16 17.0357Z" fill="#EEE8DF"/>
</svg>
